<?xml version="1.0" encoding="UTF-8" standalone="no"?>
<svg
   width="64pt"
   height="64pt"
   viewBox="0 0 22.577778 22.577778"
   version="1.1"
   id="svg831"
   inkscape:version="1.1.2 (1:1.1+202202050950+0a00cf5339)"
   sodipodi:docname="21 - Biceps.svg"
   inkscape:export-filename="/media/taufikramadhan/Data/Tr Design Studio/Project Design/TR Creative Design/Icon Design/Project Hiring/Icon Icons/018 - Gym And Fitness/5 - Send/3 - Flat/21 - Biceps.png"
   inkscape:export-xdpi="576"
   inkscape:export-ydpi="576"
   xmlns:inkscape="http://www.inkscape.org/namespaces/inkscape"
   xmlns:sodipodi="http://sodipodi.sourceforge.net/DTD/sodipodi-0.dtd"
   xmlns="http://www.w3.org/2000/svg"
   xmlns:svg="http://www.w3.org/2000/svg"
   xmlns:rdf="http://www.w3.org/1999/02/22-rdf-syntax-ns#"
   xmlns:cc="http://creativecommons.org/ns#"
   xmlns:dc="http://purl.org/dc/elements/1.1/">
  <defs
     id="defs825">
    <pattern
       id="EMFhbasepattern"
       patternUnits="userSpaceOnUse"
       width="6"
       height="6"
       x="0"
       y="0" />
    <pattern
       id="EMFhbasepattern-9"
       patternUnits="userSpaceOnUse"
       width="6"
       height="6"
       x="0"
       y="0" />
    <pattern
       id="EMFhbasepattern-0"
       patternUnits="userSpaceOnUse"
       width="6"
       height="6"
       x="0"
       y="0" />
    <pattern
       id="EMFhbasepattern-7"
       patternUnits="userSpaceOnUse"
       width="6"
       height="6"
       x="0"
       y="0" />
    <pattern
       id="EMFhbasepattern-2"
       patternUnits="userSpaceOnUse"
       width="6"
       height="6"
       x="0"
       y="0" />
    <pattern
       id="EMFhbasepattern-98"
       patternUnits="userSpaceOnUse"
       width="6"
       height="6"
       x="0"
       y="0" />
    <pattern
       id="EMFhbasepattern-6"
       patternUnits="userSpaceOnUse"
       width="6"
       height="6"
       x="0"
       y="0" />
    <pattern
       id="EMFhbasepattern-01"
       patternUnits="userSpaceOnUse"
       width="6"
       height="6"
       x="0"
       y="0" />
    <pattern
       id="EMFhbasepattern-07"
       patternUnits="userSpaceOnUse"
       width="6"
       height="6"
       x="0"
       y="0" />
    <pattern
       id="EMFhbasepattern-8"
       patternUnits="userSpaceOnUse"
       width="6"
       height="6"
       x="0"
       y="0" />
    <pattern
       id="EMFhbasepattern-4"
       patternUnits="userSpaceOnUse"
       width="6"
       height="6"
       x="0"
       y="0" />
    <pattern
       id="EMFhbasepattern-40"
       patternUnits="userSpaceOnUse"
       width="6"
       height="6"
       x="0"
       y="0" />
    <pattern
       id="EMFhbasepattern-08"
       patternUnits="userSpaceOnUse"
       width="6"
       height="6"
       x="0"
       y="0" />
    <pattern
       id="EMFhbasepattern-04"
       patternUnits="userSpaceOnUse"
       width="6"
       height="6"
       x="0"
       y="0" />
    <pattern
       id="EMFhbasepattern-014"
       patternUnits="userSpaceOnUse"
       width="6"
       height="6"
       x="0"
       y="0" />
    <pattern
       id="EMFhbasepattern-27"
       patternUnits="userSpaceOnUse"
       width="6"
       height="6"
       x="0"
       y="0" />
    <pattern
       id="EMFhbasepattern-09"
       patternUnits="userSpaceOnUse"
       width="6"
       height="6"
       x="0"
       y="0" />
    <pattern
       id="EMFhbasepattern-5"
       patternUnits="userSpaceOnUse"
       width="6"
       height="6"
       x="0"
       y="0" />
    <pattern
       id="EMFhbasepattern-018"
       patternUnits="userSpaceOnUse"
       width="6"
       height="6"
       x="0"
       y="0" />
  </defs>
  <sodipodi:namedview
     inkscape:lockguides="true"
     id="base"
     pagecolor="#ffffff"
     bordercolor="#666666"
     borderopacity="1.0"
     inkscape:pageopacity="0.0"
     inkscape:pageshadow="2"
     inkscape:zoom="5.5546875"
     inkscape:cx="42.576653"
     inkscape:cy="42.666667"
     inkscape:document-units="pt"
     inkscape:current-layer="layer1"
     showgrid="false"
     units="pt"
     inkscape:window-width="1366"
     inkscape:window-height="705"
     inkscape:window-x="0"
     inkscape:window-y="31"
     inkscape:window-maximized="1"
     inkscape:pagecheckerboard="true"
     inkscape:showpageshadow="false"
     inkscape:object-paths="true"
     inkscape:snap-intersection-paths="true"
     inkscape:snap-smooth-nodes="true"
     inkscape:snap-midpoints="true"
     showguides="false"
     inkscape:snap-bbox="true"
     inkscape:bbox-nodes="true"
     inkscape:snap-nodes="false"
     inkscape:snap-global="true"
     inkscape:document-rotation="0">
    <inkscape:grid
       type="xygrid"
       id="grid1378" />
    <sodipodi:guide
       position="0.97013831,21.607643"
       orientation="78.000048,0"
       id="guide1380"
       inkscape:locked="true" />
    <sodipodi:guide
       position="0.97013831,0.97013129"
       orientation="0,78.000005"
       id="guide1382"
       inkscape:locked="true" />
    <sodipodi:guide
       position="21.607639,0.97013129"
       orientation="-78.000048,0"
       id="guide1384"
       inkscape:locked="true" />
    <sodipodi:guide
       position="21.607639,21.607643"
       orientation="0,-78.000005"
       id="guide1386"
       inkscape:locked="true" />
  </sodipodi:namedview>
  <metadata
     id="metadata828">
    <rdf:RDF>
      <cc:Work
         rdf:about="">
        <dc:format>image/svg+xml</dc:format>
        <dc:type
           rdf:resource="http://purl.org/dc/dcmitype/StillImage" />
      </cc:Work>
    </rdf:RDF>
  </metadata>
  <g
     inkscape:label="Icon"
     inkscape:groupmode="layer"
     id="layer1"
     transform="translate(0,-274.42223)">
    <g
       id="g18781"
       style="display:inline;stroke-width:0.794873"
       transform="matrix(1.2580631,0,0,1.2580631,0.63859905,-154.03083)">
      <path
         style="color:#000000;fill:#ffa185;fill-opacity:1;stroke-width:0.794873;stroke-linecap:round;stroke-linejoin:round;stroke-miterlimit:10;-inkscape-stroke:none"
         d="m 9.9257813,345.02344 a 0.26460996,0.26460996 0 0 0 -0.2714844,0.0137 c -0.2229294,0.14859 -0.2791874,0.2495 -0.5195313,0.30078 a 0.26460996,0.26460996 0 0 0 -0.021484,0.004 c -0.3250379,0.0979 -0.6187302,0.0817 -0.9765625,0.0996 a 0.26460996,0.26460996 0 0 0 -0.2500001,0.26562 v 0.2793 c 0,0.44688 0.3675672,0.8164 0.8144532,0.8164 h 0.5507812 c 0.4468861,0 0.8144526,-0.36952 0.8144526,-0.8164 v -0.73047 a 0.26460996,0.26460996 0 0 0 -0.1406244,-0.23242 z"
         id="path32151" />
      <path
         style="color:#000000;fill:#ffccbc;stroke-width:0.794873;stroke-linecap:round;stroke-linejoin:round;stroke-miterlimit:10;-inkscape-stroke:none"
         d="m 6.7659955,341.57764 c -0.2874983,2.6e-4 -0.5281853,0.0172 -0.541569,0.0181 -1.2064354,0 -1.9732414,0.51149 -2.4101888,1.06454 -0.3780314,0.47847 -0.5219497,0.97513 -0.574642,1.21749 -0.3924853,0.19467 -1.4228233,0.84488 -1.5363404,2.34611 -0.2306477,0.32367 -1.38809678,2.06363 -1.43970549,4.49275 a 0.26460996,0.26460996 0 0 0 0,0.006 c 0,2.5816 0.86595889,4.00118 1.94923509,4.89427 1.5098191,1.27809 3.4768449,1.48514 4.9764405,1.49965 a 0.2645835,0.2645835 0 0 0 0.0062,0.003 c 0.377894,0.0874 0.7879839,0.13695 1.230416,0.13695 0,0 0.7198487,0.002 1.5802656,-0.10387 0.791769,-0.0968 1.66313,-0.31321 2.300634,-0.71107 0.735275,0.47082 1.783942,0.92654 3.249931,1.05471 0.609857,0.0532 1.111044,-0.45564 1.111044,-1.05471 v -6.60115 c 0,-0.59883 -0.490517,-1.08985 -1.08934,-1.08985 h -0.54932 a 0.26460996,0.26460996 0 0 0 -0.0016,0 v -5.3e-4 c -2.427706,0.004 -3.955972,1.2982 -4.539258,1.90479 -0.0399,-0.0653 -0.08228,-0.12923 -0.128674,-0.19172 a 0.26460996,0.26460996 0 0 0 -0.0041,-0.006 c -1.069403,-1.35892 -2.7446394,-1.15718 -2.771407,-1.15394 -0.8686306,0.004 -1.5387448,0.27121 -2.0143473,0.57775 -0.077412,-0.41704 -0.1808676,-1.13048 -0.1808673,-1.96629 0,-1.13205 0.5452583,-1.96083 0.6774778,-2.15232 0.2207257,0.10107 0.4409591,0.21445 0.7090008,0.21445 h 1.37511 c 0.5003599,0 0.9139356,-0.0515 1.2500528,-0.1695 0.3361171,-0.11807 0.6016732,-0.31305 0.7498252,-0.58807 0.148152,-0.27503 0.166845,-0.60479 0.09198,-0.95498 -0.07424,-0.34726 -0.239003,-0.72671 -0.482658,-1.15032 -0.2977401,-0.59285 -0.6904532,-0.9814 -1.1523845,-1.20716 -0.4634601,-0.22651 -0.9795497,-0.29614 -1.5446087,-0.32246 -0.099598,-0.005 -0.2007899,-0.006 -0.2966225,-0.006 z"
         id="path32157" />
      <path
         id="path318058"
         style="display:inline;fill:#ffa185;fill-opacity:1;stroke:none;stroke-width:8.7436;stroke-linecap:round;stroke-linejoin:round;stroke-miterlimit:10;stroke-opacity:1;stop-color:#000000"
         d="m 8.0449219,244.98828 c -0.8126695,1.2898 -1.4480294,2.94677 -1.6074219,5.05469 -0.8717393,1.22332 -5.2463497,7.79954 -5.44140625,16.98047 -9.124e-5,0.008 -9.124e-5,0.0159 0,0.0234 0,9.75726 3.27291525,15.12258 7.36718745,18.49804 4.3667528,3.69651 9.7344398,5.00822 14.5585938,5.45117 0.0045,0.003 0.0092,0.006 0.01367,0.01 1.340133,0.12308 2.641567,0.18156 3.863281,0.20117 0.128579,0.004 0.258086,0.009 0.384766,0.0117 1.439978,0.336 2.989925,0.52344 4.662109,0.52344 0,0 2.720687,0.008 5.972656,-0.39258 2.470239,-0.30198 5.137727,-0.91726 7.351563,-1.9668 l 1.34375,-0.72265 -1.449219,-1.97852 c -0.530491,-0.72503 -1.579397,-0.9287 -2.384765,-0.53125 -5.903423,2.9133 -13.335319,2.78715 -19.085938,0.60742 -1.712464,-0.6601 -3.126864,-1.38963 -4.058594,-1.91601 -1.248461,-1.36813 -2.440212,-2.77526 -3.53125,-4.0586 -0.207069,-0.27401 -0.528379,-0.41006 -0.847656,-0.39453 -0.191565,0.008 -0.381583,0.0721 -0.546875,0.19531 -0.443224,0.33185 -0.532478,0.96026 -0.199219,1.40235 1.095871,1.45508 2.288768,2.97871 3.59375,4.4414 -9.9872504,-2.20091 -12.6542966,-9.3164 -12.6542966,-9.3164 -4.37805528,-11.42818 -0.2358601,-21.63498 1.1210937,-24.46875 0.2442653,2.17308 0.4555123,4.23925 0.4609378,5.86328 -0.00216,0.5523 0.4438062,1.00175 0.9960938,1.00391 0.5553414,0.002 1.0060813,-0.44855 1.0039062,-1.00391 0,-2.66551 -0.2496417,-4.15237 -0.4355468,-5.76563 v -0.002 -0.002 -0.002 -0.002 c -0.1865273,-1.22971 -0.2572627,-2.34679 -0.2949219,-3.43945 -0.048624,-1.41075 -0.042073,-2.7818 -0.15625,-4.30469 z"
         transform="matrix(0.26458334,0,0,0.26458334,0,280.06666)"
         sodipodi:nodetypes="scccccccccccccscccccccccccccccccsss" />
      <path
         id="path8180"
         style="display:inline;fill:#ffa185;fill-opacity:1;stroke-width:2.31341;stroke-linecap:round;stroke-linejoin:round;stroke-miterlimit:10;stop-color:#000000"
         d="m 16.098707,354.5387 c -0.211646,1.50657 -1.200363,1.90264 -3.791964,1.90264 0.735275,0.47082 1.783941,0.92654 3.249931,1.05471 0.609856,0.0532 1.111043,-0.45564 1.111043,-1.05471 v -6.60115 z"
         sodipodi:nodetypes="cccscc" />
      <path
         id="path86421"
         style="color:#000000;fill:#ffa185;stroke-width:3.00425;stroke-linecap:round;stroke-linejoin:round;stroke-miterlimit:10;-inkscape-stroke:none"
         d="m 30.871094,239.96875 c -0.209873,-0.0146 -0.419012,0.0373 -0.597656,0.14844 -0.470218,0.29269 -0.612962,0.91184 -0.31836,1.38086 0,0 1.794922,2.88884 1.794922,6.52539 v 1.05859 c 0.718087,-0.0265 1.384595,-0.0912 2,-0.18945 v -0.86914 c 0,-4.29113 -2.095703,-7.58985 -2.095703,-7.58985 -0.142491,-0.22501 -0.368855,-0.38389 -0.628906,-0.4414 -0.05074,-0.0118 -0.102334,-0.0196 -0.154297,-0.0234 z m -3.431641,9.1406 v -0.9961 c 0,-4.27812 -2.015625,-7.57422 -2.015625,-7.57422 -0.194345,-0.32181 -0.55276,-0.50743 -0.927734,-0.48047 v -0.002 c -0.157619,0.0117 -0.310228,0.0605 -0.445313,0.14258 -0.473093,0.28525 -0.625267,0.90006 -0.339843,1.37305 0,0 1.726562,2.88955 1.726562,6.53906 v 0.97851 z m -9.107422,-4.62692 c -0.195364,0.004 -0.385874,0.0644 -0.548828,0.17774 -0.458281,0.31294 -0.575633,0.94029 -0.259765,1.39648 0,0 1.640722,2.56448 4.363281,4.02734 0.434972,-0.88973 0.844344,-1.50122 1.041015,-1.7871 -2.176268,-1.20307 -3.757813,-3.37696 -3.757812,-3.37696 -0.149556,-0.21997 -0.381042,-0.37266 -0.642578,-0.42187 -0.06506,-0.0113 -0.130191,-0.0156 -0.195313,-0.0156 z m 2.394531,17.25781 c -2.655836,1.50951 -3.728515,3.58399 -3.728515,3.58399 -0.248844,0.49326 -0.05006,1.09517 0.443359,1.34375 0.493285,0.24907 1.09321,0.0502 1.341797,-0.44336 0,0 0.602043,-1.24361 2.267578,-2.36133 z m 29.832032,3.04688 c -0.262613,5.5e-4 -0.51447,0.10438 -0.701172,0.28906 -0.39173,0.39073 -0.39173,1.02529 0,1.41602 0,0 5.857982,5.82269 3.890625,14.67578 -0.116269,0.53739 0.223117,1.06785 0.759765,1.1875 0.535601,0.11792 1.066244,-0.21754 1.189454,-0.75195 2.19194,-9.86378 -4.429688,-16.52735 -4.429688,-16.52735 -0.188623,-0.18659 -0.443667,-0.29058 -0.708984,-0.28906 z m -9.386719,0.58008 c -0.606622,0.52248 -1.144053,1.0192 -1.53125,1.42187 1.366624,2.99789 0.754873,6.55295 -0.314453,8.8125 -0.233802,0.49943 -0.01852,1.09522 0.480469,1.33008 0.497469,0.23471 1.090544,0.0227 1.328125,-0.47266 1.351086,-2.8549 2.102235,-7.31389 0.03711,-11.09179 z m -34.2851562,3.57617 c -0.5522879,0.002 -0.9982571,0.45162 -0.9960938,1.00391 0,0 0.00118,1.13089 0.28125,2.53125 0.2800705,1.40035 0.8123685,3.1405 2.0878906,4.41601 0.3909501,0.39303 1.0270187,0.39303 1.4179688,0 0.3930346,-0.39095 0.3930346,-1.02702 0,-1.41797 -0.8041297,-0.80414 -1.3109393,-2.18947 -1.5507813,-3.38868 -0.2398412,-1.19921 -0.2363281,-2.14062 -0.2363281,-2.14062 0.00218,-0.55534 -0.4485649,-1.00608 -1.0039062,-1.00391 z m 39.5156252,0 c -0.552288,0.002 -0.998257,0.45162 -0.996094,1.00391 0,0 -0.06885,2.76224 -1.794922,4.48828 -0.393035,0.39095 -0.393035,1.02702 0,1.41797 0.39095,0.39303 1.027019,0.39303 1.417969,0 2.433218,-2.43315 2.36914,-5.90625 2.369141,-5.90625 0.0022,-0.55229 -0.443806,-1.00176 -0.996094,-1.00391 z m -27.035156,6.24414 c -0.02083,7e-5 -0.04338,5.7e-4 -0.06445,0.002 -0.549945,0.034 -0.969166,0.50462 -0.9375,1.05469 -1.91e-4,0.37304 0.256764,0.63372 0.44336,0.82031 0.813392,0.76915 1.896748,1.41007 2.753906,1.8086 1.97392,0.90689 5.01416,1.70399 9.308594,1.43164 0.550056,-0.0378 0.965683,-0.51235 0.929687,-1.0625 -0.03345,-0.55302 -0.509645,-0.97341 -1.0625,-0.9375 -3.992027,0.25323 -6.669252,-0.4796 -8.341797,-1.24805 -0.872036,-0.36193 -1.558608,-0.8967 -2.25,-1.49805 -0.184914,-0.22889 -0.466772,-0.37213 -0.779296,-0.37109 z"
         transform="matrix(0.26458334,0,0,0.26458334,0,280.06666)"
         sodipodi:nodetypes="sccsccsccsscscccccsccsccccccssccccccccccccccccccccscscccscsscccccccscccccccccss" />
    </g>
  </g>
</svg>
