<svg width="44" height="44" viewBox="0 0 44 44" fill="none" xmlns="http://www.w3.org/2000/svg">
<rect x="0.5" y="0.5" width="43" height="43" rx="9.5" stroke="#F4F4F4" stroke-opacity="0.1"/>
<g opacity="0.8">
<path d="M25.0799 12.0602C25.2899 12.0602 25.4999 12.0602 25.9199 12.0602V15.2102C25.7099 15.2102 25.2899 15.2102 24.8699 15.2102C24.4499 15.2102 24.0299 15.2102 23.8199 15.4202C23.6099 15.6302 23.6099 15.8402 23.6099 16.3302C23.6099 16.7502 23.6099 17.0302 23.6099 17.4502H25.9199V20.1102H23.6099V31.6602H20.0399V20.0402H18.1499V17.3802H20.0399V16.4702C20.0399 14.9302 20.2499 13.8102 20.6699 13.3202C21.2999 12.4102 22.5599 11.9902 24.4499 11.9902C24.6599 12.0602 24.8699 12.0602 25.0799 12.0602Z" fill="#F4F4F4"/>
</g>
</svg>
