<svg aria-hidden="true" style="position: absolute; width: 0; height: 0; overflow: hidden;" version="1.1" xmlns="http://www.w3.org/2000/svg" xmlns:xlink="http://www.w3.org/1999/xlink">
<defs>
<symbol id="icon-burger-menu" viewBox="0 0 32 32">
<path stroke-linejoin="round" stroke-linecap="round" stroke-miterlimit="4" stroke-width="2" d="M28 13.333h-24M28 8h-24M28 18.667h-24M28 24h-24"></path>
</symbol>
<symbol id="icon-arrow" viewBox="0 0 32 32">
<path fill="#f4f4f4" style="fill: var(--color1, #f4f4f4); stroke: var(--color1, #f4f4f4)" stroke="#f4f4f4" stroke-linejoin="miter" stroke-linecap="butt" stroke-miterlimit="4" stroke-width="0.48" d="M17.037 7.986v16.338h-1.741v-16.336l-8.168 8.168-1.23-1.229 10.269-10.267 10.266 10.267-1.229 1.229-8.168-8.17z"></path>
</symbol>
<symbol id="icon-close" viewBox="0 0 32 32">
<path stroke-linejoin="round" stroke-linecap="round" stroke-miterlimit="4" stroke-width="2.6667" d="M22.667 9.333l-13.333 13.333M9.333 9.333l13.333 13.333"></path>
</symbol>
<symbol id="icon-facebook" viewBox="0 0 32 32">
<path d="M19.52 4.64h0.96v3.6h-1.2c-0.48 0-0.96 0-1.2 0.24s-0.24 0.48-0.24 1.040v1.28h2.64v3.040h-2.64v13.2h-4.080v-13.28h-2.16v-3.040h2.16v-1.040c0-1.76 0.24-3.040 0.72-3.6 0.72-1.040 2.16-1.52 4.32-1.52 0.24 0.080 0.48 0.080 0.72 0.080z"></path>
</symbol>
<symbol id="icon-dumbbell" viewBox="0 0 32 32">
<path fill="#f4f4f4" style="fill: var(--color1, #f4f4f4)" d="M7.36 9.142h-1.92c-0.533 0-0.96 0.459-0.96 1.029v4.458h-0.96c-0.176 0-0.32 0.154-0.32 0.342v2.058c0 0.189 0.144 0.342 0.32 0.342h0.96v4.458c0 0.57 0.429 1.029 0.96 1.029h1.92c0.533 0 0.96-0.459 0.96-1.029v-11.658c0-0.57-0.429-1.029-0.96-1.029zM28.48 14.629h-0.96v-4.458c0-0.57-0.427-1.029-0.96-1.029h-1.92c-0.531 0-0.96 0.459-0.96 1.029v11.658c0 0.57 0.429 1.029 0.96 1.029h1.92c0.531 0 0.96-0.459 0.96-1.029v-4.458h0.96c0.176 0 0.32-0.154 0.32-0.342v-2.058c0-0.189-0.144-0.342-0.32-0.342zM21.44 6.4h-1.92c-0.531 0-0.96 0.459-0.96 1.029v7.2h-5.12v-7.2c0-0.57-0.429-1.029-0.96-1.029h-1.92c-0.531 0-0.96 0.459-0.96 1.029v17.142c0 0.57 0.429 1.029 0.96 1.029h1.92c0.533 0 0.96-0.459 0.96-1.029v-7.2h5.12v7.2c0 0.57 0.429 1.029 0.96 1.029h1.92c0.531 0 0.96-0.459 0.96-1.029v-17.142c0-0.57-0.429-1.029-0.96-1.029z"></path>
</symbol>
<symbol id="icon-heart" viewBox="0 0 32 32">
<path stroke-linejoin="round" stroke-linecap="round" stroke-miterlimit="4" stroke-width="2.4" d="M27.787 6.147c-1.327-1.328-3.161-2.149-5.186-2.149s-3.859 0.821-5.186 2.149l-0 0-1.414 1.413-1.413-1.413c-1.327-1.327-3.161-2.148-5.186-2.148-4.051 0-7.335 3.284-7.335 7.335 0 2.025 0.821 3.859 2.148 5.186v0l11.786 11.787 11.787-11.787c1.327-1.327 2.148-3.161 2.148-5.186s-0.821-3.859-2.148-5.186v0z"></path>
</symbol>
<symbol id="icon-instagram" viewBox="0 0 32 32">
<path d="M28.718 10.757c-0.016-1.134-0.233-2.213-0.617-3.208l0.021 0.063c-0.682-1.722-2.021-3.059-3.7-3.722l-0.044-0.015c-0.921-0.356-1.985-0.573-3.097-0.596l-0.010-0c-1.367-0.061-1.801-0.078-5.271-0.078-3.472 0-3.917 0-5.274 0.078-1.063 0.023-2.113 0.223-3.106 0.597-1.724 0.678-3.064 2.015-3.73 3.693l-0.015 0.044c-0.357 0.918-0.574 1.981-0.596 3.091l-0 0.009c-0.061 1.367-0.080 1.8-0.080 5.265 0 3.466 0 3.909 0.080 5.265 0.023 1.063 0.223 2.11 0.597 3.104 0.682 1.721 2.021 3.058 3.7 3.721l0.044 0.015c0.917 0.37 1.979 0.601 3.091 0.638l0.016 0c1.369 0.061 1.802 0.080 5.274 0.080 3.471 0 3.917 0 5.274-0.080 1.122-0.023 2.187-0.239 3.172-0.616l-0.064 0.022c1.722-0.68 3.061-2.016 3.727-3.693l0.016-0.044c0.374-0.994 0.574-2.041 0.595-3.104 0.062-1.366 0.080-1.799 0.080-5.266-0.003-3.465-0.003-3.905-0.082-5.263zM15.989 22.531c-0.002 0-0.004 0-0.007 0-3.624 0-6.563-2.937-6.565-6.561v-0c0.003-3.624 2.941-6.561 6.566-6.561 0.002 0 0.004 0 0.006 0h-0c3.629 0 6.571 2.937 6.571 6.561-0.004 3.624-2.942 6.56-6.567 6.56-0.002 0-0.003 0-0.005 0h0zM22.823 10.696c-0.845 0-1.53-0.685-1.53-1.53s0.685-1.53 1.53-1.53v0c0.012-0 0.027-0.001 0.042-0.001 0.845 0 1.53 0.685 1.53 1.53s-0.685 1.53-1.53 1.53c-0.015 0-0.029-0-0.044-0.001l0.002 0z"></path>
<path d="M15.992 19.976c2.211 0 4.004-1.793 4.004-4.004s-1.793-4.004-4.004-4.004v0c-2.211 0-4.004 1.793-4.004 4.004s1.793 4.004 4.004 4.004v0z"></path>
</symbol>
<symbol id="icon-inverted-commas" viewBox="0 0 32 32">
<path fill="#f4f4f4" style="fill: var(--color1, #f4f4f4)" d="M8.2 17.468c1.547-0.612 2.787-0.452 3.72 0.481s1.211 2.421 0.831 4.463c-0.291 1.517-0.933 2.684-1.924 3.5-0.963 0.787-2.087 1.181-3.369 1.181-1.751 0-2.96-0.671-3.631-2.013-0.672-1.369-0.803-3.207-0.395-5.512 0.233-1.253 0.613-2.523 1.137-3.805 0.525-1.284 1.227-2.596 2.1-3.937 0.876-1.343 2.013-2.509 3.413-3.5 1.309-0.943 2.874-1.62 4.57-1.916l0.067-0.010-0.437 4.637c-1.429 0.292-2.699 1.035-3.807 2.231-1.108 1.167-1.867 2.567-2.275 4.2zM21.369 17.468c1.547-0.612 2.787-0.452 3.72 0.481s1.209 2.421 0.831 4.463c-0.292 1.517-0.933 2.684-1.925 3.5-0.963 0.787-2.085 1.181-3.368 1.181-1.751 0-2.96-0.671-3.632-2.013-0.671-1.369-0.801-3.207-0.393-5.512 0.233-1.253 0.613-2.523 1.137-3.805 0.525-1.284 1.225-2.596 2.1-3.937 0.875-1.343 2.013-2.509 3.413-3.5 1.309-0.943 2.873-1.619 4.567-1.916l0.067-0.010-0.437 4.637c-1.429 0.292-2.697 1.035-3.805 2.231-1.109 1.167-1.867 2.567-2.276 4.2z"></path>
</symbol>
<symbol id="icon-running-man" viewBox="0 0 32 32">
<path d="M29.648 9.451c-0.219-0.26-0.545-0.424-0.909-0.424-0.29 0-0.556 0.104-0.762 0.277l0.002-0.002-3.28 2.757-1.51-3.739c-0.056-0.14-0.134-0.261-0.229-0.364l0.001 0.001c-0.321-0.716-0.875-1.281-1.563-1.608l-0.019-0.008c-0.32-0.146-0.651-0.224-0.982-0.262-0.072-0.038-0.139-0.088-0.222-0.114l-5.776-1.61c-0.093-0.026-0.199-0.041-0.31-0.041-0.223 0-0.432 0.062-0.611 0.169l0.005-0.003c-0.33 0.108-0.59 0.352-0.717 0.664l-0.003 0.008-2.174 5.592c-0.050 0.127-0.079 0.273-0.079 0.427 0 0.501 0.31 0.929 0.748 1.103l0.008 0.003c0.126 0.050 0.272 0.079 0.425 0.079 0.5 0 0.928-0.31 1.103-0.748l0.003-0.008 1.837-4.723 2.63 0.731c-0.064 0.104-0.133 0.202-0.186 0.312l-3.371 7.312c-0.048 0.107-0.075 0.216-0.11 0.326l-4.098 6.87-6.859 2.294c-0.42 0.323-0.687 0.826-0.687 1.391 0 0.968 0.784 1.752 1.752 1.752 0.381 0 0.733-0.122 1.021-0.328l-0.005 0.004 7.019-2.416c0.216-0.157 0.371-0.362 0.49-0.581 0.088-0.094 0.189-0.168 0.256-0.285l2.443-4.096 4.336 3.696-4.64 5.229c-0.273 0.307-0.439 0.714-0.439 1.16 0 0.967 0.784 1.751 1.751 1.751 0.521 0 0.99-0.228 1.31-0.589l0.002-0.002 5.79-6.523c0.179-0.202 0.288-0.432 0.36-0.675 0.043-0.133 0.043-0.269 0.053-0.406 0-0.069 0.027-0.131 0.021-0.195-0.009-0.509-0.239-0.963-0.598-1.272l-0.002-0.002-3.992-3.403c0.288-0.274 0.533-0.6 0.709-0.982l2.586-5.6 0.829 2.208c0.031 0.211 0.116 0.398 0.242 0.551l-0.002-0.002c0.121 0.138 0.273 0.247 0.445 0.314l0.008 0.003c0.018 0.008 0.038 0.010 0.059 0.016 0.096 0.040 0.208 0.069 0.325 0.080l0.005 0c0.024 0.002 0.052 0.003 0.081 0.003 0.116 0 0.227-0.017 0.332-0.050l-0.008 0.002h0.005c0.037-0.010 0.074-0.003 0.11-0.019 0.186-0.076 0.343-0.192 0.464-0.337l0.002-0.002 4.71-3.997c0.501-0.422 0.288-1.168-0.133-1.667zM23.69 6.602c1.823 0 3.301-1.478 3.301-3.301s-1.478-3.301-3.301-3.301v0c-1.823 0-3.301 1.478-3.301 3.301s1.478 3.301 3.301 3.301v0z"></path>
</symbol>
<symbol id="icon-search" viewBox="0 0 32 32">
<path stroke-linejoin="round" stroke-linecap="round" stroke-miterlimit="4" stroke-width="2.6667" d="M14.667 25.333c5.891 0 10.667-4.776 10.667-10.667s-4.776-10.667-10.667-10.667v0c-5.891 0-10.667 4.776-10.667 10.667s4.776 10.667 10.667 10.667v0zM28 28l-5.801-5.799"></path>
</symbol>
<symbol id="icon-star" viewBox="0 0 32 32">
<path fill="#f4f4f4" style="fill: var(--color1, #f4f4f4)" opacity="0.2" d="M13.826 3.262c0.686-2.105 3.664-2.105 4.347 0l1.931 5.943c0.306 0.925 1.163 1.581 2.174 1.582h6.251c2.215 0 3.134 2.834 1.344 4.135l-5.058 3.673c-0.573 0.42-0.942 1.092-0.942 1.849 0 0.253 0.041 0.496 0.117 0.723l-0.005-0.016 1.931 5.945c0.686 2.105-1.726 3.858-3.518 2.555l-5.056-3.673c-0.372-0.273-0.839-0.437-1.344-0.437s-0.972 0.164-1.35 0.441l0.006-0.004-5.056 3.673c-1.792 1.303-4.201-0.45-3.518-2.555l1.931-5.943c0.071-0.212 0.113-0.455 0.113-0.708 0-0.757-0.368-1.429-0.936-1.845l-0.006-0.004-5.058-3.673c-1.79-1.303-0.869-4.137 1.344-4.137h6.251c1.008-0.001 1.864-0.654 2.167-1.561l0.005-0.016 1.934-5.943z"></path>
</symbol>
<symbol id="icon-sun" viewBox="0 0 32 32">
<path d="M14.254 13.506l0.363 0.372-4.466-12.797 5.321 12.466 0.018-0.52 0.441-13.027 0.441 13.026 0.018 0.521 0.204-0.479 5.117-11.987-4.466 12.797 9.465-9.702-8.787 10.32 12.331-5.628-11.922 6.449 13.531-0.793-13.446 1.707 12.904 4.148-13.155-3.266 10.534 8.53-11.086-7.797 6.741 11.759-7.521-11.276 2.038 13.4-2.94-13.231-2.94 13.232 1.96-12.886 0.078-0.515-0.288 0.433-7.233 10.843 6.741-11.758-0.426 0.299-10.661 7.499 10.535-8.53-13.156 3.266 12.904-4.148-13.446-1.707 13.531 0.793-11.922-6.449 12.331 5.628-8.787-10.32 9.102 9.33zM15.185 14.071l-0.646 0.4-0.458 0.607-0.208 0.731 0.070 0.757 0.339 0.68 0.562 0.512 0.709 0.275h0.76l0.709-0.274 0.562-0.512 0.339-0.681 0.070-0.757-0.208-0.731-0.459-0.607-0.645-0.4-0.748-0.14-0.747 0.14z"></path>
</symbol>
<symbol id="icon-trash" viewBox="0 0 32 32">
<path stroke-linejoin="round" stroke-linecap="round" stroke-miterlimit="4" stroke-width="2.4" d="M21.333 8v-1.067c0-1.493 0-2.24-0.29-2.81-0.261-0.505-0.662-0.906-1.152-1.159l-0.015-0.007c-0.57-0.29-1.317-0.29-2.81-0.29h-2.134c-1.493 0-2.24 0-2.81 0.29-0.502 0.256-0.91 0.664-1.166 1.166-0.29 0.57-0.29 1.317-0.29 2.81v1.067M13.333 15.333v6.667M18.667 15.333v6.667M4 8h24M25.333 8v14.933c0 2.24 0 3.36-0.435 4.216-0.391 0.756-0.992 1.358-1.727 1.738l-0.022 0.011c-0.854 0.435-1.976 0.435-4.216 0.435h-5.866c-2.24 0-3.36 0-4.216-0.435-0.756-0.391-1.358-0.992-1.738-1.727l-0.011-0.022c-0.435-0.856-0.435-1.976-0.435-4.216v-14.933"></path>
</symbol>
<symbol id="icon-youtube" viewBox="0 0 32 32">
<path d="M24.24 6c-1.36-0.080-4.16-0.16-8.4-0.16h-0.56c-4.080 0-6.8 0.080-8.16 0.24-1.84 0.16-3.12 0.64-3.84 1.28-0.64 0.56-1.12 1.6-1.28 2.96-0.080 0.88-0.16 2.72-0.16 5.52v0.4c0 2.64 0.080 4.48 0.24 5.36 0.24 1.28 0.64 2.24 1.44 2.8 0.8 0.64 2.16 1.040 4.080 1.2 1.36 0.080 4.16 0.16 8.4 0.16h0.56c4.080 0 6.8-0.080 8.16-0.24 1.84-0.16 3.12-0.64 3.84-1.28 0.64-0.56 1.12-1.6 1.28-2.96 0.080-0.88 0.16-2.72 0.16-5.52v-0.4c0-2.64-0.080-4.48-0.24-5.36-0.24-1.28-0.64-2.24-1.44-2.8-0.8-0.64-2.16-1.040-4.080-1.2zM21.12 15.84l-8.8 5.28v-10.56l8.8 5.28z"></path>
</symbol>
</defs>
</svg>

