<svg width="44" height="44" viewBox="0 0 44 44" fill="none" xmlns="http://www.w3.org/2000/svg">
<rect x="0.5" y="0.5" width="43" height="43" rx="9.5" stroke="#F4F4F4" stroke-opacity="0.1"/>
<g opacity="0.8">
<path d="M33.1277 17.4115C33.114 16.4715 32.9398 15.5388 32.6065 14.6596C32.0231 13.1583 30.8352 11.9711 29.3313 11.3899C28.4618 11.0633 27.5426 10.8882 26.6122 10.8683C25.4155 10.815 25.0361 10.8 21.9986 10.8C18.961 10.8 18.5716 10.8 17.3837 10.8683C16.4545 10.8882 15.5353 11.0633 14.6658 11.3899C13.162 11.9711 11.9728 13.1583 11.3907 14.6596C11.0635 15.5277 10.8869 16.4454 10.8695 17.373C10.816 18.5689 10.7998 18.9477 10.7998 21.9802C10.7998 25.0127 10.7998 25.4002 10.8695 26.5873C10.8881 27.5162 11.0635 28.4327 11.3907 29.3032C11.974 30.8033 13.162 31.9905 14.6671 32.5717C15.5328 32.9095 16.452 33.1007 17.385 33.1305C18.5828 33.1839 18.9622 33.2001 21.9998 33.2001C25.0374 33.2001 25.4267 33.2001 26.6146 33.1305C27.5438 33.1119 28.4631 32.9368 29.3338 32.6102C30.8377 32.0278 32.0256 30.8406 32.609 29.3405C32.9361 28.4712 33.1115 27.5547 33.1301 26.6246C33.1836 25.43 33.1998 25.0512 33.1998 22.0174C33.1973 18.9849 33.1973 18.5999 33.1277 17.4115ZM21.9911 27.7149C18.8142 27.7149 16.2406 25.1456 16.2406 21.974C16.2406 18.8024 18.8142 16.233 21.9911 16.233C25.1655 16.233 27.7416 18.8024 27.7416 21.974C27.7416 25.1456 25.1655 27.7149 21.9911 27.7149ZM27.9705 17.3594C27.2279 17.3594 26.6296 16.7608 26.6296 16.0207C26.6296 15.2805 27.2279 14.682 27.9705 14.682C28.7106 14.682 29.3102 15.2805 29.3102 16.0207C29.3102 16.7608 28.7106 17.3594 27.9705 17.3594Z" fill="#F4F4F4"/>
<path d="M21.9932 25.4789C23.9282 25.4789 25.4967 23.9104 25.4967 21.9754C25.4967 20.0405 23.9282 18.4719 21.9932 18.4719C20.0583 18.4719 18.4897 20.0405 18.4897 21.9754C18.4897 23.9104 20.0583 25.4789 21.9932 25.4789Z" fill="#F4F4F4"/>
</g>
</svg>
