<svg width="132" height="14" viewBox="0 0 132 14" fill="none" xmlns="http://www.w3.org/2000/svg">
<path d="M4.98 8.28L0 0H2.98L6.32 5.74H6.36L9.7 0H12.68L7.7 8.28V14H4.98V8.28Z" fill="#242424"/>
<path d="M12.6703 11.7V2.3L14.9703 0H22.1703L24.4703 2.3V11.7L22.1703 14H14.9703L12.6703 11.7ZM20.7303 11.68L21.7503 10.66V3.34L20.7303 2.32H16.4103L15.3903 3.34V10.66L16.4103 11.68H20.7303Z" fill="#242424"/>
<path d="M26.3742 11.6V0H29.0942V10.66L30.1142 11.68H34.0342L35.0542 10.66V0H37.7742V11.6L35.3742 14H28.7742L26.3742 11.6Z" fill="#242424"/>
<path d="M50.8781 9.36V14H48.1581V9.98L46.9581 8.64H42.5981V14H39.8781V0H48.6581L50.7981 2.16V6.4L49.4381 7.78L50.8781 9.36ZM42.5981 6.4H47.4181L48.1181 5.7V2.98L47.4181 2.28H42.5981V6.4Z" fill="#242424"/>
<path d="M57.8234 0H67.9434V2.3H60.5434V5.84H67.3634V8.1H60.5434V11.7H67.9434V14H57.8234V0Z" fill="#242424"/>
<path d="M69.4523 0H71.8923L78.1323 9.5H78.1723V0H80.7923V14H78.3523L72.1123 4.52H72.0723V14H69.4523V0Z" fill="#242424"/>
<path d="M82.8977 0H93.0177V2.3H85.6177V5.84H92.4377V8.1H85.6177V11.7H93.0177V14H82.8977V0Z" fill="#242424"/>
<path d="M105.527 9.36V14H102.807V9.98L101.607 8.64H97.2466V14H94.5266V0H103.307L105.447 2.16V6.4L104.087 7.78L105.527 9.36ZM97.2466 6.4H102.067L102.767 5.7V2.98L102.067 2.28H97.2466V6.4Z" fill="#242424"/>
<path d="M107.323 11.7V2.3L109.623 0H116.583L118.843 2.26V4.4H116.123V3.26L115.183 2.32H111.063L110.043 3.34V10.66L111.063 11.68H115.223L116.203 10.7V8.52H113.203V6.2H118.843V11.7L116.543 14H109.623L107.323 11.7Z" fill="#242424"/>
<path d="M123.828 8.28L118.848 0H121.828L125.168 5.74H125.208L128.548 0H131.528L126.548 8.28V14H123.828V8.28Z" fill="#242424"/>
</svg>
