<svg width="44" height="44" viewBox="0 0 44 44" fill="none" xmlns="http://www.w3.org/2000/svg">
<rect x="0.5" y="0.5" width="43" height="43" rx="9.5" stroke="#F4F4F4" stroke-opacity="0.1"/>
<g opacity="0.8">
<path fill-rule="evenodd" clip-rule="evenodd" d="M29.2099 13.2499C28.0199 13.1799 25.5699 13.1099 21.8599 13.1099H21.3699C17.7999 13.1099 15.4199 13.1799 14.2299 13.3199C12.6199 13.4599 11.4999 13.8799 10.8699 14.4399C10.3099 14.9299 9.88987 15.8399 9.74987 17.0299C9.67987 17.7999 9.60986 19.4099 9.60986 21.8599V22.2099C9.60986 24.5199 9.67985 26.1299 9.81985 26.8999C10.0299 28.0199 10.3799 28.8599 11.0799 29.3499C11.7799 29.9099 12.9699 30.2599 14.6499 30.3999C15.8399 30.4699 18.2899 30.5399 21.9999 30.5399H22.4899C26.0599 30.5399 28.4399 30.4699 29.6299 30.3299C31.2399 30.1899 32.3599 29.7699 32.9899 29.2099C33.5499 28.7199 33.9699 27.8099 34.1099 26.6199C34.1799 25.8499 34.2499 24.2399 34.2499 21.7899V21.4399C34.2499 19.1299 34.1799 17.5199 34.0399 16.7499C33.8299 15.6299 33.4799 14.7899 32.7799 14.2999C32.0799 13.7399 30.8899 13.3899 29.2099 13.2499ZM26.4799 21.8599L18.7799 26.4799V17.2399L26.4799 21.8599Z" fill="#F4F4F4"/>
</g>
</svg>
